PathFileType	4	(X/Y/Z)	c:/Users/goper/Files/vsCode/490R/osim_files/A05/A05_Fast_03.trc
DataRate	CameraRate	NumFrames	NumMarkers	Units                	OrigDataRate	OrigDataStartFrame	OrigNumFrames
250.00	250.00	5	36	mm	250.0	826	2200
                Frame#	Time	LPSIS			LASIS			LTH1			LTH2			LTH3			LTH4			LLFE			LMFE			LSH1			LSH2			LSH3			LSH4			LLMAL			LMMAL			LCAL			LMTP5			LTOE			LMTP1			RPSIS			RASIS			RTH1			RTH2			RTH3			RTH4			RLFE			RMFE			RSH1			RSH2			RSH3			RSH4			RLMAL			RMMAL			RCAL			RMTP1			RTOE			RMTP5		
		X1	Y1	Z1	X2	Y2	Z2	X3	Y3	Z3	X4	Y4	Z4	X5	Y5	Z5	X6	Y6	Z6	X7	Y7	Z7	X8	Y8	Z8	X9	Y9	Z9	X10	Y10	Z10	X11	Y11	Z11	X12	Y12	Z12	X13	Y13	Z13	X14	Y14	Z14	X15	Y15	Z15	X16	Y16	Z16	X17	Y17	Z17	X18	Y18	Z18	X19	Y19	Z19	X20	Y20	Z20	X21	Y21	Z21	X22	Y22	Z22	X23	Y23	Z23	X24	Y24	Z24	X25	Y25	Z25	X26	Y26	Z26	X27	Y27	Z27	X28	Y28	Z28	X29	Y29	Z29	X30	Y30	Z30	X31	Y31	Z31	X32	Y32	Z32	X33	Y33	Z33	X34	Y34	Z34	X35	Y35	Z35	X36	Y36	Z36

826	3.30000	659.92047	1006.98901	326.13123	468.18372	951.88538	431.17557	594.40216	672.39325	465.13379	577.81592	632.06952	467.48718	535.55060	687.20636	485.89697	528.70569	644.15076	483.84451	498.77737	468.75082	460.37488	494.23096	467.97818	360.64395	529.71326	372.32672	468.83557	527.64392	326.84338	472.91296	468.63983	367.79510	460.64157	474.63321	322.84656	464.54617	493.12061	108.53572	466.63937	490.48114	109.97144	378.25171	570.88641	55.75698	415.15839	361.89310	49.37404	496.41443	311.95316	74.73894	437.20163	351.41293	65.87833	386.73636	655.46082	1011.86200	245.68993	473.55322	974.75500	134.70068	491.87769	609.47571	43.93062	479.43097	569.23456	46.45464	432.63199	621.20728	61.54433	430.21329	574.05469	64.11150	508.71286	528.73010	53.27993	474.36624	493.04388	188.19089	699.24860	372.39304	64.55065	732.74030	340.20889	75.08649	659.99628	324.00391	68.56757	703.57837	300.70929	72.17487	810.13403	263.43936	96.38218	753.81268	240.98618	177.42223	866.00061	289.39359	175.33157	772.08881	98.00040	170.27174	749.01019	77.22520	116.34025	806.80865	118.04196	61.32624
827	3.30400	656.24109	1007.53943	326.46692	464.42569	952.04132	431.73227	592.05573	673.00647	465.44476	575.72314	632.65576	467.77066	533.09790	687.48425	486.28174	526.55219	644.40875	484.28934	497.52750	468.85416	460.67932	492.81635	468.10428	360.92960	528.74750	372.48895	469.03989	526.75494	327.01096	472.68445	467.80353	367.86520	461.00476	473.99155	322.92645	464.78839	493.06876	108.56158	466.69907	490.29764	109.94653	378.25684	570.72528	55.81640	415.18597	361.88129	49.29906	496.39655	311.87473	74.60773	437.21588	351.28162	65.77428	386.75775	651.48413	1012.20190	246.00395	469.29446	975.47571	135.39825	483.20309	610.81152	44.09896	470.51263	570.58948	46.48578	424.92572	623.41931	61.30297	421.21008	575.64685	64.33379	497.75174	529.10120	53.53536	465.75626	494.80319	188.53429	689.92328	374.53555	64.16249	723.80341	342.73831	74.79050	651.03967	326.19891	68.80503	694.85968	303.15228	72.21548	802.01965	266.35873	96.21089	745.70673	244.10011	177.25797	858.27789	291.25842	175.00682	762.92896	101.22518	169.35870	739.61255	80.55459	114.80386	797.44995	121.34357	60.13838
828	3.30800	652.32953	1008.05157	326.86597	460.63916	952.32239	432.32538	589.66675	673.64355	465.77435	573.89709	633.62988	467.88153	530.66791	687.77161	486.70285	524.16760	644.84991	484.39511	496.26218	469.00122	460.94504	491.44232	468.27530	361.21146	527.79681	372.69427	469.19095	525.94037	327.20978	472.81149	466.81790	367.91873	461.16998	473.12796	322.98965	465.07138	493.03479	108.66014	466.78571	490.19510	109.99101	378.30118	570.62292	55.88236	415.13586	361.81409	49.22780	496.38794	311.76392	74.19505	437.51752	351.24677	65.75993	386.72479	647.43750	1012.63556	246.30348	465.01218	976.28510	136.01755	474.31653	612.08698	44.30215	461.25134	571.93347	46.55701	416.27655	625.09778	61.70816	412.35437	577.35303	64.58106	488.19330	530.38373	53.49868	457.10129	496.63953	188.83731	680.82239	376.83307	63.96396	714.82672	345.15143	74.48786	642.14062	328.44965	68.72655	686.04327	305.49854	72.04770	793.79913	269.34671	96.13369	737.60052	247.37041	177.34105	850.75482	293.01990	174.75339	753.05499	104.39711	168.37146	729.54962	84.74436	114.25130	787.41180	124.56741	59.10355
829	3.31200	648.17609	1008.48773	327.27582	456.98331	952.64148	432.95209	587.30969	674.28522	466.05273	571.76440	634.18622	468.18826	528.20636	688.00970	487.07639	522.09357	644.89380	484.99969	495.08524	469.15375	461.18689	491.27823	469.19946	361.25284	526.86407	372.88779	469.37186	525.13049	327.40259	472.96313	465.90033	368.03024	461.40909	472.39148	323.09894	465.20767	494.25793	110.01916	468.46472	490.09305	110.01855	378.33954	570.61548	56.07648	415.18106	361.71613	49.15716	496.37491	311.60086	74.12075	437.50897	351.12653	65.74053	386.71063	643.46381	1013.08386	246.57706	460.74994	976.96234	136.76773	466.66248	614.30945	44.13577	452.41904	573.53906	46.71896	407.62643	626.93524	62.18611	403.54712	579.23029	64.82647	477.91241	531.45337	53.56591	448.73297	498.49634	189.35182	671.88452	379.27679	63.83400	705.73999	347.42670	74.19640	633.09607	330.49811	68.52612	676.98785	307.54767	71.79533	785.25946	272.14017	96.04890	729.08783	250.36971	177.14229	842.97455	294.39465	174.44498	742.58411	107.24266	167.29196	718.81470	88.56302	113.04546	776.89929	127.73303	57.90146
830	3.31600	644.30463	1009.07513	327.57944	453.30280	952.93188	433.52341	585.15631	674.97961	466.39713	569.68573	634.78290	468.44614	525.78003	688.29913	487.49539	519.92279	645.17706	485.33331	493.87283	469.29288	461.39658	488.81018	468.60455	361.71210	525.95654	373.16083	469.47565	524.38336	327.66019	473.09509	464.89368	368.07242	461.45911	471.45215	323.16751	465.24799	494.13486	110.04965	468.48959	489.99731	110.07951	378.38702	570.54401	56.16078	415.14185	361.65396	49.11731	496.35040	311.50555	74.08428	437.48163	351.05661	65.73869	386.66275	639.52905	1013.55182	246.80530	456.42303	977.71118	137.47165	454.30350	613.49548	46.11382	443.36316	575.12909	46.84858	399.11801	628.71429	62.79270	394.61249	580.97363	65.37201	469.55420	533.27533	53.70363	440.47256	500.48157	189.91396	662.42920	381.02487	63.66171	696.84332	349.71808	73.95743	623.96021	332.44022	68.30743	667.88660	309.48068	71.48858	776.24182	274.41763	95.82584	721.52722	254.42870	179.08260	834.89563	295.41812	174.11647	731.80011	109.64083	165.94827	707.90375	91.99404	111.84741	766.13074	130.45409	56.74043
